# xmcd
#
# Track frame offsets:
#	150
#	15671
#	48109
#	87248
#
# Disc length: 1372 seconds
#
# Revision: 4
# Processed by: cddbd v1.5.1PL0 Copyright (c) Steve Scherf et al.
# Submitted via: audiograbber 1.83.01
#
DISCID=22055a04
DTITLE=Blank and Jones - Desire
DYEAR=2002
DGENRE=Trance
TTITLE0=Desire (Short Cut)
TTITLE1=Desire (Original Mix)
TTITLE2=Desire (Bart Claessen Movin' Remix)
TTITLE3=Nightclubbing  (Wippenberg Remix)
EXTD=YEAR: 2002
EXTT0=
EXTT1=
EXTT2=
EXTT3=
PLAYORDER=
